<svg width="19" height="20" viewBox="0 0 19 20" fill="none" xmlns="http://www.w3.org/2000/svg">
    <path d="M10.2533 4.4933H6.74665C5.96989 4.4933 5.28519 4.0991 4.88171 3.49984L2.75 3.5C2.3703 3.5 2.05651 3.78215 2.00685 4.14823L2 4.25V17.7546C2 18.1343 2.28215 18.4481 2.64823 18.4977L2.85177 18.5114C3.21785 18.5611 3.5 18.8749 3.5 19.2546C3.5 19.6688 3.16421 20.0046 2.75 20.0046C1.55914 20.0046 0.584355 19.0794 0.505191 17.9086L0.5 17.7546V4.25C0.5 3.05914 1.42516 2.08436 2.59595 2.00519L2.75 2L4.51344 1.99946C4.63651 0.874973 5.5894 0 6.74665 0H10.2533C11.4106 0 12.3635 0.874973 12.4866 1.99946L14.25 2C15.4409 2 16.4156 2.92516 16.4948 4.09595L16.5 4.25V9.75425C16.5 10.1685 16.1642 10.5042 15.75 10.5042C15.3703 10.5042 15.0565 10.2221 15.0068 9.85602L15 9.75425V4.25C15 3.8703 14.7178 3.55651 14.3518 3.50685L14.25 3.5L12.1183 3.49984C11.7148 4.0991 11.0301 4.4933 10.2533 4.4933ZM13.5 11.9975H14.5C16.7091 11.9975 18.5 13.7884 18.5 15.9975C18.5 18.1397 16.816 19.8886 14.7038 19.9926L14.5046 19.9975L13.5046 20.0021C12.9523 20.0046 12.5025 19.559 12.5 19.0067C12.4977 18.4939 12.8818 18.0694 13.3788 18.0094L13.4954 18.0021L14.5 17.9975C15.6046 17.9975 16.5 17.1021 16.5 15.9975C16.5 14.9432 15.6841 14.0794 14.6493 14.003L14.5 13.9975H13.5C12.9477 13.9975 12.5 13.5498 12.5 12.9975C12.5 12.4847 12.886 12.062 13.3834 12.0043L13.5 11.9975ZM9 12.0021H10C10.5523 12.0021 11 12.4498 11 13.0021C11 13.515 10.614 13.9376 10.1166 13.9954L10 14.0021H9C7.89543 14.0021 7 14.8975 7 16.0021C7 17.0565 7.81588 17.9203 8.85074 17.9966L9 18.0021H10C10.5523 18.0021 11 18.4498 11 19.0021C11 19.515 10.614 19.9376 10.1166 19.9954L10 20.0021H9C6.79086 20.0021 5 18.2113 5 16.0021C5 13.8599 6.68397 12.111 8.80036 12.007L9 12.0021ZM8.99856 14.9998H14.5C15.0523 14.9998 15.5 15.4475 15.5 15.9998C15.5 16.5127 15.114 16.9353 14.6166 16.9931L14.5 16.9998H8.99856C8.44628 16.9998 7.99856 16.5521 7.99856 15.9998C7.99856 15.487 8.3846 15.0643 8.88194 15.0065L8.99856 14.9998ZM10.2533 1.5H6.74665C6.33429 1.5 6 1.83429 6 2.24665C6 2.65902 6.33429 2.9933 6.74665 2.9933H10.2533C10.6657 2.9933 11 2.65902 11 2.24665C11 1.83429 10.6657 1.5 10.2533 1.5Z" fill="#4B465C"/>
    <path d="M10.2533 4.4933H6.74665C5.96989 4.4933 5.28519 4.0991 4.88171 3.49984L2.75 3.5C2.3703 3.5 2.05651 3.78215 2.00685 4.14823L2 4.25V17.7546C2 18.1343 2.28215 18.4481 2.64823 18.4977L2.85177 18.5114C3.21785 18.5611 3.5 18.8749 3.5 19.2546C3.5 19.6688 3.16421 20.0046 2.75 20.0046C1.55914 20.0046 0.584355 19.0794 0.505191 17.9086L0.5 17.7546V4.25C0.5 3.05914 1.42516 2.08436 2.59595 2.00519L2.75 2L4.51344 1.99946C4.63651 0.874973 5.5894 0 6.74665 0H10.2533C11.4106 0 12.3635 0.874973 12.4866 1.99946L14.25 2C15.4409 2 16.4156 2.92516 16.4948 4.09595L16.5 4.25V9.75425C16.5 10.1685 16.1642 10.5042 15.75 10.5042C15.3703 10.5042 15.0565 10.2221 15.0068 9.85602L15 9.75425V4.25C15 3.8703 14.7178 3.55651 14.3518 3.50685L14.25 3.5L12.1183 3.49984C11.7148 4.0991 11.0301 4.4933 10.2533 4.4933ZM13.5 11.9975H14.5C16.7091 11.9975 18.5 13.7884 18.5 15.9975C18.5 18.1397 16.816 19.8886 14.7038 19.9926L14.5046 19.9975L13.5046 20.0021C12.9523 20.0046 12.5025 19.559 12.5 19.0067C12.4977 18.4939 12.8818 18.0694 13.3788 18.0094L13.4954 18.0021L14.5 17.9975C15.6046 17.9975 16.5 17.1021 16.5 15.9975C16.5 14.9432 15.6841 14.0794 14.6493 14.003L14.5 13.9975H13.5C12.9477 13.9975 12.5 13.5498 12.5 12.9975C12.5 12.4847 12.886 12.062 13.3834 12.0043L13.5 11.9975ZM9 12.0021H10C10.5523 12.0021 11 12.4498 11 13.0021C11 13.515 10.614 13.9376 10.1166 13.9954L10 14.0021H9C7.89543 14.0021 7 14.8975 7 16.0021C7 17.0565 7.81588 17.9203 8.85074 17.9966L9 18.0021H10C10.5523 18.0021 11 18.4498 11 19.0021C11 19.515 10.614 19.9376 10.1166 19.9954L10 20.0021H9C6.79086 20.0021 5 18.2113 5 16.0021C5 13.8599 6.68397 12.111 8.80036 12.007L9 12.0021ZM8.99856 14.9998H14.5C15.0523 14.9998 15.5 15.4475 15.5 15.9998C15.5 16.5127 15.114 16.9353 14.6166 16.9931L14.5 16.9998H8.99856C8.44628 16.9998 7.99856 16.5521 7.99856 15.9998C7.99856 15.487 8.3846 15.0643 8.88194 15.0065L8.99856 14.9998ZM10.2533 1.5H6.74665C6.33429 1.5 6 1.83429 6 2.24665C6 2.65902 6.33429 2.9933 6.74665 2.9933H10.2533C10.6657 2.9933 11 2.65902 11 2.24665C11 1.83429 10.6657 1.5 10.2533 1.5Z" fill="white" fill-opacity="0.2"/>
    </svg>
    