<svg width="16" height="21" viewBox="0 0 16 21" fill="none" xmlns="http://www.w3.org/2000/svg">
    <path d="M9.29805 7.11059L10.618 9.75059C10.798 10.1106 11.278 10.4706 11.678 10.5306L14.068 10.9306C15.598 11.1906 15.958 12.2906 14.858 13.3906L12.998 15.2506C12.688 15.5606 12.508 16.1706 12.608 16.6106L13.138 18.9206C13.558 20.7406 12.588 21.4506 10.978 20.5006L8.73805 19.1706C8.32805 18.9306 7.66805 18.9306 7.25805 19.1706L5.01801 20.5006C3.40801 21.4506 2.438 20.7406 2.858 18.9206L3.38803 16.6106C3.48803 16.1806 3.30802 15.5706 2.99802 15.2506L1.13803 13.3906C0.0380269 12.2906 0.398007 11.1806 1.92801 10.9306L4.31802 10.5306C4.71802 10.4606 5.19802 10.1106 5.37802 9.75059L6.69805 7.11059C7.40805 5.68059 8.58805 5.68059 9.29805 7.11059Z" fill="#A8AAAE"/>
    <path opacity="0.4" d="M2 8.75C1.59 8.75 1.25 8.41 1.25 8V1C1.25 0.59 1.59 0.25 2 0.25C2.41 0.25 2.75 0.59 2.75 1V8C2.75 8.41 2.41 8.75 2 8.75Z" fill="#292D32"/>
    <path opacity="0.4" d="M14 8.75C13.59 8.75 13.25 8.41 13.25 8V1C13.25 0.59 13.59 0.25 14 0.25C14.41 0.25 14.75 0.59 14.75 1V8C14.75 8.41 14.41 8.75 14 8.75Z" fill="#292D32"/>
    <path opacity="0.4" d="M8 3.75C7.59 3.75 7.25 3.41 7.25 3V1C7.25 0.59 7.59 0.25 8 0.25C8.41 0.25 8.75 0.59 8.75 1V3C8.75 3.41 8.41 3.75 8 3.75Z" fill="#292D32"/>
    </svg>
    