<svg width="21" height="19" viewBox="0 0 21 19" fill="none" xmlns="http://www.w3.org/2000/svg">
    <g opacity="0.6">
    <path d="M0.883558 14.3037L3.89186 11.6655C4.07735 11.5026 4.31321 11.4014 4.5641 11.377C4.81498 11.3527 5.06739 11.4065 5.28351 11.5304L6.95016 12.4761C7.15375 12.5928 7.39008 12.6471 7.62709 12.6314C7.86411 12.6158 8.09035 12.531 8.27514 12.3886L11.6751 9.82995C11.8949 9.66409 12.17 9.57923 12.45 9.59091C12.73 9.60258 12.9963 9.71 13.2001 9.89352L20.1333 16.1472C20.2476 16.2492 20.339 16.3722 20.402 16.5088C20.465 16.6453 20.4983 16.7927 20.5 16.9419V17.8875C20.5 18.1825 20.3771 18.4655 20.1583 18.6741C19.9395 18.8827 19.6428 18.9999 19.3333 18.9999H1.66688C1.35747 18.9999 1.06072 18.8827 0.841934 18.6741C0.623144 18.4655 0.500229 18.1825 0.500229 17.8875V15.154C0.496925 14.9944 0.529416 14.836 0.595526 14.6893C0.661636 14.5427 0.759838 14.4112 0.883558 14.3037Z" fill="#4B465C"/>
    <path d="M0.883558 14.3037L3.89186 11.6655C4.07735 11.5026 4.31321 11.4014 4.5641 11.377C4.81498 11.3527 5.06739 11.4065 5.28351 11.5304L6.95016 12.4761C7.15375 12.5928 7.39008 12.6471 7.62709 12.6314C7.86411 12.6158 8.09035 12.531 8.27514 12.3886L11.6751 9.82995C11.8949 9.66409 12.17 9.57923 12.45 9.59091C12.73 9.60258 12.9963 9.71 13.2001 9.89352L20.1333 16.1472C20.2476 16.2492 20.339 16.3722 20.402 16.5088C20.465 16.6453 20.4983 16.7927 20.5 16.9419V17.8875C20.5 18.1825 20.3771 18.4655 20.1583 18.6741C19.9395 18.8827 19.6428 18.9999 19.3333 18.9999H1.66688C1.35747 18.9999 1.06072 18.8827 0.841934 18.6741C0.623144 18.4655 0.500229 18.1825 0.500229 17.8875V15.154C0.496925 14.9944 0.529416 14.836 0.595526 14.6893C0.661636 14.5427 0.759838 14.4112 0.883558 14.3037Z" fill="white" fill-opacity="0.2"/>
    </g>
    <path d="M19.3081 0H1.66665C1.35724 0 1.06049 0.117207 0.841705 0.325837C0.622915 0.534468 0.5 0.817431 0.5 1.11248V9.81365C0.504511 10.028 0.573887 10.2366 0.699779 10.4142C0.825671 10.5919 1.00272 10.731 1.20961 10.815C1.4165 10.8989 1.64443 10.9241 1.86596 10.8874C2.0875 10.8507 2.2932 10.7538 2.45831 10.6083L4.00829 9.24152C4.12418 9.13751 4.27308 9.07325 4.43151 9.05886C4.58994 9.04447 4.74889 9.08078 4.88328 9.16206L7.05826 10.4732C7.18538 10.5481 7.33367 10.5837 7.48284 10.5752C7.63201 10.5667 7.77477 10.5144 7.89158 10.4255L11.9999 7.24701C12.1317 7.13798 12.3004 7.07796 12.4749 7.07796C12.6494 7.07796 12.818 7.13798 12.9499 7.24701L18.4998 12.2214C18.6646 12.3695 18.871 12.4686 19.0939 12.5067C19.3168 12.5449 19.5466 12.5203 19.7551 12.436C19.9636 12.3518 20.1419 12.2115 20.2682 12.0323C20.3945 11.8531 20.4634 11.6427 20.4664 11.4267V1.09659C20.4621 0.805672 20.3384 0.527959 20.1219 0.322975C19.9053 0.117991 19.6132 0.00204858 19.3081 0ZM6.04994 7.51718C5.75786 7.51875 5.47188 7.4376 5.22822 7.28401C4.98457 7.13043 4.79422 6.91132 4.6813 6.65446C4.56839 6.3976 4.53799 6.11455 4.59395 5.8412C4.64992 5.56784 4.78974 5.31649 4.99568 5.11899C5.20163 4.92149 5.46443 4.78675 5.75077 4.73183C6.03711 4.67691 6.33411 4.7043 6.60411 4.81052C6.87412 4.91673 7.10497 5.097 7.26742 5.32846C7.42986 5.55993 7.51658 5.83217 7.51659 6.11069C7.51659 6.48234 7.36234 6.83889 7.08752 7.10243C6.81271 7.36597 6.43968 7.51508 6.04994 7.51718Z" fill="#4B465C"/>
    <path d="M19.3081 0H1.66665C1.35724 0 1.06049 0.117207 0.841705 0.325837C0.622915 0.534468 0.5 0.817431 0.5 1.11248V9.81365C0.504511 10.028 0.573887 10.2366 0.699779 10.4142C0.825671 10.5919 1.00272 10.731 1.20961 10.815C1.4165 10.8989 1.64443 10.9241 1.86596 10.8874C2.0875 10.8507 2.2932 10.7538 2.45831 10.6083L4.00829 9.24152C4.12418 9.13751 4.27308 9.07325 4.43151 9.05886C4.58994 9.04447 4.74889 9.08078 4.88328 9.16206L7.05826 10.4732C7.18538 10.5481 7.33367 10.5837 7.48284 10.5752C7.63201 10.5667 7.77477 10.5144 7.89158 10.4255L11.9999 7.24701C12.1317 7.13798 12.3004 7.07796 12.4749 7.07796C12.6494 7.07796 12.818 7.13798 12.9499 7.24701L18.4998 12.2214C18.6646 12.3695 18.871 12.4686 19.0939 12.5067C19.3168 12.5449 19.5466 12.5203 19.7551 12.436C19.9636 12.3518 20.1419 12.2115 20.2682 12.0323C20.3945 11.8531 20.4634 11.6427 20.4664 11.4267V1.09659C20.4621 0.805672 20.3384 0.527959 20.1219 0.322975C19.9053 0.117991 19.6132 0.00204858 19.3081 0ZM6.04994 7.51718C5.75786 7.51875 5.47188 7.4376 5.22822 7.28401C4.98457 7.13043 4.79422 6.91132 4.6813 6.65446C4.56839 6.3976 4.53799 6.11455 4.59395 5.8412C4.64992 5.56784 4.78974 5.31649 4.99568 5.11899C5.20163 4.92149 5.46443 4.78675 5.75077 4.73183C6.03711 4.67691 6.33411 4.7043 6.60411 4.81052C6.87412 4.91673 7.10497 5.097 7.26742 5.32846C7.42986 5.55993 7.51658 5.83217 7.51659 6.11069C7.51659 6.48234 7.36234 6.83889 7.08752 7.10243C6.81271 7.36597 6.43968 7.51508 6.04994 7.51718Z" fill="white" fill-opacity="0.2"/>
    </svg>
    