<svg width="68" height="64" viewBox="0 0 68 64" fill="none" xmlns="http://www.w3.org/2000/svg">
    <path opacity="0.6" d="M2.19057 47.5432L12.1411 38.8169C12.7546 38.278 13.5348 37.9432 14.3647 37.8627C15.1945 37.7821 16.0294 37.9602 16.7442 38.3701L22.257 41.4979C22.9304 41.8841 23.7121 42.0635 24.4961 42.0118C25.2801 41.9601 26.0284 41.6797 26.6396 41.2087L37.8857 32.7454C38.6127 32.1967 39.5226 31.9161 40.4488 31.9547C41.3751 31.9933 42.2558 32.3486 42.9298 32.9556L65.8629 53.641C66.2408 53.9783 66.543 54.3851 66.7515 54.8368C66.9599 55.2886 67.0702 55.7759 67.0757 56.2694V59.3972C67.0757 60.3731 66.6692 61.309 65.9455 61.9991C65.2218 62.6892 64.2402 63.0769 63.2168 63.0769H4.78156C3.75811 63.0769 2.77658 62.6892 2.05289 61.9991C1.3292 61.309 0.922632 60.3731 0.922632 59.3972V50.3555C0.911705 49.8277 1.01918 49.3037 1.23785 48.8187C1.45652 48.3336 1.78134 47.8988 2.19057 47.5432Z" fill="#17766B"/>
    <path d="M63.1334 0.230469H4.7808C3.75735 0.230469 2.77582 0.618154 2.05213 1.30824C1.32844 1.99832 0.921875 2.93428 0.921875 3.91021V32.691C0.936796 33.4001 1.16627 34.0899 1.58268 34.6775C1.9991 35.2651 2.5847 35.7254 3.26904 36.0031C3.95338 36.2808 4.7073 36.364 5.44006 36.2427C6.17282 36.1214 6.85321 35.8008 7.39936 35.3194L12.5262 30.7986C12.9096 30.4546 13.4021 30.242 13.9261 30.1944C14.4501 30.1468 14.9759 30.2669 15.4204 30.5357L22.6146 34.8726C23.035 35.1204 23.5256 35.2382 24.019 35.21C24.5124 35.1818 24.9846 35.0088 25.371 34.7149L38.9599 24.2013C39.396 23.8407 39.9538 23.6422 40.531 23.6422C41.1082 23.6422 41.6661 23.8407 42.1022 24.2013L60.4597 40.655C61.0048 41.1449 61.6876 41.4728 62.4249 41.5989C63.1622 41.725 63.922 41.6437 64.6117 41.3651C65.3014 41.0864 65.8911 40.6224 66.3089 40.0296C66.7267 39.4368 66.9546 38.7408 66.9647 38.0266V3.85764C66.9503 2.89538 66.5412 1.9768 65.825 1.29877C65.1088 0.620746 64.1425 0.237245 63.1334 0.230469ZM19.2794 25.095C18.3133 25.1002 17.3673 24.8318 16.5614 24.3237C15.7554 23.8157 15.1258 23.091 14.7523 22.2414C14.3788 21.3918 14.2783 20.4555 14.4634 19.5514C14.6485 18.6472 15.111 17.8158 15.7922 17.1625C16.4734 16.5093 17.3427 16.0636 18.2898 15.8819C19.2369 15.7003 20.2193 15.7908 21.1124 16.1422C22.0055 16.4935 22.7691 17.0898 23.3064 17.8554C23.8437 18.621 24.1306 19.5215 24.1306 20.4427C24.1306 21.6721 23.6204 22.8514 22.7114 23.7231C21.8024 24.5948 20.5685 25.088 19.2794 25.095Z" fill="#17766B"/>
    </svg>
    