<svg width="45" height="24" viewBox="0 0 45 24" fill="none" xmlns="http://www.w3.org/2000/svg">
    <g clip-path="url(#clip0_1481_16112)">
    <path d="M12.3161 5.64551L22.499 15.0514V21.6455L7.99609 17.7961L12.3161 5.64551Z" fill="url(#paint0_linear_1481_16112)"/>
    <path d="M32.6829 5.64551L22.5 15.0514V21.6455L37.0029 17.7961L32.6829 5.64551Z" fill="url(#paint1_linear_1481_16112)"/>
    <path d="M35.2407 21.6455H9.75781V23.9998H35.2407V21.6455Z" fill="url(#paint2_linear_1481_16112)"/>
    <path d="M30.2287 14.2374L22.5015 2.58887L14.7744 14.2374L2.98438 7.17464L9.76009 21.646H22.5015H35.2429L42.0187 7.17464L30.2287 14.2374Z" fill="url(#paint3_linear_1481_16112)"/>
    <path d="M25.4813 2.58856C25.4813 1.16039 24.1442 0 22.4985 0C20.8528 0 19.5156 1.16039 19.5156 2.58856C19.5156 4.01674 20.8528 5.17713 22.4985 5.17713C24.1442 5.17713 25.4813 4.01674 25.4813 2.58856Z" fill="url(#paint4_linear_1481_16112)"/>
    <path d="M45.0009 7.1745C45.0009 5.74633 43.6637 4.58594 42.018 4.58594C40.3723 4.58594 39.0352 5.74633 39.0352 7.1745C39.0352 8.60267 40.3723 9.76306 42.018 9.76306C43.6637 9.76306 45.0009 8.60267 45.0009 7.1745Z" fill="url(#paint5_linear_1481_16112)"/>
    <path d="M5.96571 7.1745C5.96571 5.74633 4.62857 4.58594 2.98286 4.58594C1.33714 4.58594 0 5.74633 0 7.1745C0 8.60267 1.33714 9.76306 2.98286 9.76306C4.62857 9.76306 5.96571 8.60267 5.96571 7.1745Z" fill="url(#paint6_linear_1481_16112)"/>
    <path d="M22.5016 12.1172L19.9688 15.6207L22.5016 19.1242L25.0345 15.6207L22.5016 12.1172Z" fill="#1C8E7E"/>
    <path d="M22.5013 12.1172L22.0898 15.6207L22.5013 19.1242L25.0341 15.6207L22.5013 12.1172Z" fill="#17766B"/>
    </g>
    <defs>
    <linearGradient id="paint0_linear_1481_16112" x1="15.2475" y1="-1.97513" x2="15.2475" y2="16.9482" gradientUnits="userSpaceOnUse">
    <stop offset="0.01" stop-color="#FED33C"/>
    <stop offset="0.16" stop-color="#FEC831"/>
    <stop offset="0.71" stop-color="#FEA50D"/>
    <stop offset="1" stop-color="#FF9800"/>
    </linearGradient>
    <linearGradient id="paint1_linear_1481_16112" x1="29.7514" y1="-0.000238419" x2="29.7514" y2="-0.000238419" gradientUnits="userSpaceOnUse">
    <stop offset="0.01" stop-color="#FED33C"/>
    <stop offset="0.16" stop-color="#FEC831"/>
    <stop offset="0.71" stop-color="#FEA50D"/>
    <stop offset="1" stop-color="#FF9800"/>
    </linearGradient>
    <linearGradient id="paint2_linear_1481_16112" x1="22.4992" y1="21.0207" x2="22.4992" y2="24.3122" gradientUnits="userSpaceOnUse">
    <stop offset="0.01" stop-color="#FED33C"/>
    <stop offset="0.16" stop-color="#FEC831"/>
    <stop offset="0.71" stop-color="#FEA50D"/>
    <stop offset="1" stop-color="#FF9800"/>
    </linearGradient>
    <linearGradient id="paint3_linear_1481_16112" x1="22.5015" y1="3.80505" x2="22.5015" y2="24.335" gradientUnits="userSpaceOnUse">
    <stop offset="0.01" stop-color="#FED33C"/>
    <stop offset="0.16" stop-color="#FEC831"/>
    <stop offset="0.71" stop-color="#FEA50D"/>
    <stop offset="1" stop-color="#FF9800"/>
    </linearGradient>
    <linearGradient id="paint4_linear_1481_16112" x1="22.4985" y1="-0.267782" x2="22.4985" y2="4.73082" gradientUnits="userSpaceOnUse">
    <stop offset="0.01" stop-color="#FED33C"/>
    <stop offset="0.16" stop-color="#FEC831"/>
    <stop offset="0.71" stop-color="#FEA50D"/>
    <stop offset="1" stop-color="#FF9800"/>
    </linearGradient>
    <linearGradient id="paint5_linear_1481_16112" x1="42.018" y1="4.5971" x2="42.018" y2="10.1759" gradientUnits="userSpaceOnUse">
    <stop offset="0.01" stop-color="#FED33C"/>
    <stop offset="0.16" stop-color="#FEC831"/>
    <stop offset="0.71" stop-color="#FEA50D"/>
    <stop offset="1" stop-color="#FF9800"/>
    </linearGradient>
    <linearGradient id="paint6_linear_1481_16112" x1="2.98286" y1="4.34047" x2="2.98286" y2="9.46181" gradientUnits="userSpaceOnUse">
    <stop offset="0.01" stop-color="#FED33C"/>
    <stop offset="0.16" stop-color="#FEC831"/>
    <stop offset="0.71" stop-color="#FEA50D"/>
    <stop offset="1" stop-color="#FF9800"/>
    </linearGradient>
    <clipPath id="clip0_1481_16112">
    <rect width="45" height="24" fill="white"/>
    </clipPath>
    </defs>
    </svg>
    